<svg version="1.0" xmlns="http://www.w3.org/2000/svg"
 viewBox="0 0 428.000000 175.000000"
 preserveAspectRatio="xMidYMid meet">

<g transform="translate(0.000000,175.000000) scale(0.100000,-0.100000)"
fill="white" stroke="none">
<path d="M3144 1670 c-34 -13 -64 -59 -64 -97 0 -20 4 -32 10 -28 6 3 10 20
10 36 0 19 10 39 26 56 21 21 32 24 62 19 54 -8 72 -36 72 -112 l0 -63 -117
-3 -118 -3 1 -90 c0 -71 5 -98 20 -123 40 -69 135 -93 202 -52 49 30 72 88 72
188 0 75 -2 82 -20 82 -18 0 -20 7 -20 55 0 70 -21 112 -65 131 -39 16 -42 16
-71 4z m154 -301 c-3 -90 -3 -91 -40 -125 -32 -29 -45 -34 -87 -34 -89 0 -131
57 -131 180 l0 70 131 0 131 0 -4 -91z"/>
<path d="M3140 1391 c-5 -11 -7 -40 -4 -65 6 -42 9 -46 35 -46 25 0 29 4 29
28 0 15 5 33 12 40 9 9 9 18 0 37 -14 31 -56 34 -72 6z m57 -17 c3 -8 1 -20
-6 -27 -6 -6 -11 -19 -11 -29 0 -30 -17 -20 -24 13 -3 17 -6 38 -6 45 0 19 39
18 47 -2z"/>
<path d="M3606 1470 c-66 -26 -81 -41 -217 -224 -120 -160 -149 -217 -149
-291 0 -48 29 -125 66 -176 19 -26 34 -51 34 -55 0 -5 -22 -24 -49 -42 -27
-18 -57 -42 -66 -52 -33 -36 2 -21 66 30 63 49 92 60 104 40 3 -5 14 -10 23
-9 13 0 11 4 -8 17 -92 63 -138 131 -147 217 -10 98 6 135 145 320 116 156
132 172 185 199 99 50 188 31 261 -56 69 -82 208 -282 227 -326 27 -63 25
-153 -5 -217 -21 -47 -67 -97 -125 -137 -14 -10 -22 -21 -18 -24 4 -4 15 0 25
9 27 25 38 22 104 -29 33 -25 64 -44 69 -42 6 2 -19 25 -55 51 -37 27 -66 50
-66 51 0 2 13 17 29 34 71 74 99 193 67 288 -10 29 -66 118 -141 220 -112 154
-130 175 -177 198 -62 31 -114 33 -182 6z"/>
<path d="M3901 1193 c102 -106 125 -126 118 -105 -6 17 -201 212 -212 212 -6
0 37 -48 94 -107z"/>
<path d="M3480 1218 c-64 -72 -62 -83 4 -18 52 51 66 71 49 69 -5 0 -28 -23
-53 -51z"/>
<path d="M3630 1217 c-53 -20 -58 -23 -197 -156 -122 -115 -131 -126 -126
-155 9 -57 92 -166 126 -166 6 0 -8 18 -31 40 -43 42 -65 76 -75 121 -5 21 2
34 48 79 30 30 57 52 60 49 3 -3 7 -43 10 -90 4 -61 11 -91 25 -111 11 -15 20
-43 20 -62 0 -41 35 -87 80 -106 16 -7 30 -15 30 -19 -1 -3 -20 -51 -44 -106
-33 -79 -46 -100 -61 -98 -20 2 -32 -11 -65 -69 -12 -21 -17 -38 -11 -38 6 0
22 20 36 45 30 50 21 50 138 -4 37 -18 67 -36 67 -42 0 -5 -9 -27 -20 -49 -22
-43 -24 -50 -12 -50 4 0 20 25 36 57 21 42 24 58 15 64 -18 11 34 87 62 91 15
2 26 14 32 33 13 40 15 42 31 19 12 -16 15 -16 19 -4 45 139 45 136 12 144
-32 8 -32 24 0 36 31 12 65 66 65 102 0 15 9 42 20 60 16 26 20 51 20 118 l0
85 51 -51 c46 -46 50 -55 44 -82 -3 -18 -27 -54 -52 -82 -27 -31 -39 -50 -30
-50 32 0 107 110 107 156 0 26 -238 263 -285 285 -46 22 -95 23 -145 6z m138
-23 c20 -8 63 -43 94 -77 l58 -61 0 -97 c0 -89 -2 -99 -24 -120 -19 -19 -23
-30 -18 -61 4 -33 0 -44 -23 -68 -42 -44 -77 -55 -114 -36 -27 14 -30 20 -25
49 10 56 11 57 59 57 25 0 45 4 45 9 0 5 3 16 6 25 3 9 1 16 -5 16 -6 0 -11
-7 -11 -15 0 -8 -12 -18 -27 -21 -20 -5 -30 -2 -44 15 -9 11 -31 24 -47 27
-25 5 -31 2 -37 -15 -10 -33 -54 -39 -77 -11 -22 27 -29 24 -17 -7 6 -18 16
-23 44 -23 21 0 35 -5 35 -12 0 -18 -26 -103 -31 -101 -2 1 -16 4 -31 8 -43
11 -70 48 -76 105 -2 27 -8 50 -12 50 -17 0 -30 58 -30 141 l0 90 63 60 c34
33 76 67 92 74 41 18 108 18 153 -1z m-59 -396 c0 -13 -4 -44 -8 -71 -9 -54
-9 -55 72 -87 31 -12 59 -26 62 -30 7 -11 -15 -80 -25 -80 -5 0 -12 5 -16 11
-8 14 -33 -26 -34 -53 0 -10 -10 -22 -22 -29 -13 -6 -39 -29 -59 -51 l-36 -41
-56 26 c-31 14 -57 28 -57 31 0 3 22 56 49 118 27 62 59 150 72 196 18 63 28
82 41 82 12 0 18 -7 17 -22z"/>
<path d="M3519 1070 c-29 -24 -22 -25 19 -4 29 14 35 14 62 0 31 -15 39 -9 18
12 -18 18 -73 14 -99 -8z"/>
<path d="M3759 1070 c-29 -24 -22 -25 19 -4 29 14 35 14 64 0 36 -19 51 -13
22 9 -27 21 -78 18 -105 -5z"/>
<path d="M3548 993 c18 -2 45 -2 60 0 15 2 0 4 -33 4 -33 0 -45 -2 -27 -4z"/>
<path d="M3742 933 l1 -68 6 60 6 60 55 6 55 6 -62 1 -63 2 2 -67z"/>
<path d="M104 987 c-2 -7 -3 -107 -2 -222 l3 -210 148 -3 c125 -2 147 0 147
12 0 13 -23 16 -132 18 l-133 3 0 85 0 85 98 3 c77 2 97 6 97 17 0 12 -19 15
-100 15 l-100 0 0 85 0 85 135 0 c109 0 135 3 135 14 0 22 -24 26 -161 26 -96
0 -131 -3 -135 -13z"/>
<path d="M1190 806 c0 -116 4 -194 11 -210 18 -39 89 -60 89 -26 0 5 -11 12
-25 16 -14 3 -26 7 -27 8 -1 0 -4 89 -7 196 -5 175 -8 195 -23 198 -17 3 -18
-11 -18 -182z"/>
<path d="M2382 773 c2 -162 6 -217 16 -221 9 -3 12 32 13 150 0 84 4 161 7
171 5 12 30 -29 90 -148 45 -91 86 -165 92 -165 6 0 47 74 92 165 46 91 86
165 90 165 4 0 9 -74 10 -165 2 -99 7 -166 13 -168 6 -1 11 77 13 216 2 192 1
217 -13 217 -11 0 -46 -61 -106 -185 -50 -102 -95 -183 -100 -179 -5 3 -50 86
-99 185 -57 114 -96 179 -105 179 -13 0 -15 -29 -13 -217z"/>
<path d="M1747 967 c-8 -20 9 -41 27 -34 23 9 21 47 -3 47 -10 0 -21 -6 -24
-13z"/>
<path d="M1937 953 c-4 -3 -7 -28 -7 -54 0 -44 -2 -48 -27 -51 -36 -4 -41 -26
-6 -30 l28 -3 5 -100 c3 -63 10 -108 19 -122 18 -26 52 -43 86 -43 40 0 30 28
-14 40 -51 13 -63 43 -59 146 l3 79 43 3 c54 4 52 25 -4 32 l-39 5 -3 53 c-3
49 -10 61 -25 45z"/>
<path d="M455 850 c-4 -6 16 -40 44 -75 28 -36 51 -66 51 -69 0 -2 -22 -32
-50 -66 -47 -59 -61 -90 -41 -90 5 0 33 30 62 66 l53 67 36 -43 c79 -98 78
-97 85 -78 5 12 -5 33 -32 65 -21 27 -44 55 -51 64 -10 14 -4 26 38 80 48 62
60 89 40 89 -5 0 -33 -29 -61 -65 -28 -36 -52 -65 -53 -65 -1 0 -24 29 -51 65
-49 66 -59 73 -70 55z"/>
<path d="M885 850 c-32 -13 -75 -64 -85 -101 -6 -18 -10 -100 -10 -181 0 -141
1 -148 20 -148 19 0 20 7 20 90 0 50 3 90 7 90 4 0 17 -10 30 -22 33 -31 117
-36 161 -9 101 64 96 221 -8 273 -37 19 -101 23 -135 8z m120 -36 c81 -38 85
-170 6 -217 -83 -49 -181 10 -181 108 0 95 89 150 175 109z"/>
<path d="M1410 838 c-55 -38 -75 -73 -75 -133 0 -149 181 -211 279 -95 22 27
26 41 26 92 0 50 -5 67 -26 95 -50 66 -140 84 -204 41z m134 -23 c112 -53 71
-235 -54 -235 -69 0 -120 53 -120 125 0 97 86 151 174 110z"/>
<path d="M1755 848 c-3 -8 -4 -77 -3 -153 3 -117 6 -140 18 -140 13 0 15 23
15 149 0 111 -3 150 -12 153 -7 3 -15 -2 -18 -9z"/>
<path d="M3001 842 c-52 -28 -73 -74 -69 -149 4 -68 25 -100 82 -130 36 -19
114 -13 152 11 37 25 17 43 -24 22 -62 -32 -138 -12 -167 44 -8 16 -15 34 -15
39 0 6 48 11 123 13 l122 3 3 27 c2 15 -4 43 -13 63 -33 69 -123 95 -194 57z
m122 -23 c26 -12 57 -57 57 -83 0 -14 -15 -16 -104 -16 -61 0 -107 4 -111 10
-10 15 27 73 56 87 30 16 71 16 102 2z"/>
<path d="M2120 705 c0 -13 13 -15 80 -13 107 4 108 22 3 26 -70 2 -83 0 -83
-13z"/>
<path d="M3339 605 c-45 -35 -59 -54 -69 -90 -7 -25 -10 -48 -7 -51 3 -3 8 5
12 18 17 60 31 80 81 114 29 20 51 41 48 45 -7 12 -2 15 -65 -36z"/>
<path d="M3940 642 c0 -5 24 -28 54 -51 44 -34 56 -50 65 -87 6 -25 15 -42 20
-39 13 7 -16 95 -36 111 -71 53 -103 74 -103 66z"/>
<path d="M3500 625 c7 -8 20 -15 29 -15 13 1 13 3 -3 15 -26 19 -42 19 -26 0z"/>
</g>
</svg>
